<?xml version="1.0" encoding="iso-8859-1"?>
<!-- Generator: Adobe Illustrator 16.0.0, SVG Export Plug-In . SVG Version: 6.00 Build 0)  -->
<!DOCTYPE svg PUBLIC "-//W3C//DTD SVG 1.1//EN" "http://www.w3.org/Graphics/SVG/1.1/DTD/svg11.dtd">
<svg version="1.1" id="Capa_1" xmlns="http://www.w3.org/2000/svg" xmlns:xlink="http://www.w3.org/1999/xlink" x="0px" y="0px"
	 width="477.022px" height="477.022px" viewBox="0 0 477.022 477.022" style="enable-background:new 0 0 477.022 477.022;"
	 xml:space="preserve">
<g>
	<g>
		<path d="M285.293,285.71h-96.009c-3.593,0-6.51,2.915-6.51,6.51v76.489c0,3.596,2.917,6.5,6.51,6.5h96.009
			c3.605,0,6.51-2.904,6.51-6.5V292.22C291.803,288.625,288.899,285.71,285.293,285.71z"/>
		<path d="M473.25,345.025c0-7.322-5.931-13.259-13.248-13.259c-4.144,0-7.811,1.945-10.237,4.941
			c-3.245-0.695-6.724-0.848-10.364-0.081c0,0-2.844-22.719-15.625-21.774c-12.776,0.949-14.665,15.594-14.665,15.594
			s-5.87-2.716-11.897-0.843V170.181h17.458c3.275,0,6.337-1.32,8.409-3.603c1.919-2.118,2.812-4.834,2.523-7.663l-17.59-48.182
			c-1.041-5.088-5.932-8.919-11.588-8.919H83.749c-5.601,0-10.499,3.793-11.621,8.808l-18.169,46.596l-0.403,1.635
			c-0.317,2.829,0.553,5.563,2.465,7.696c2.054,2.305,5.119,3.633,8.396,3.633h17.506V330.34
			c-6.626-3.198-13.776,0.117-13.776,0.117s-1.889-14.645-14.663-15.595c-12.774-0.949-15.62,21.774-15.62,21.774
			c-4.58-0.965-8.901-0.508-12.819,0.69c-2.181-4.326-6.622-7.322-11.796-7.322C5.934,330.005,0,335.941,0,343.264
			c0,3.798,1.62,7.195,4.179,9.612c-9.646,13.919,1.493,22.333,1.493,22.333h82.745h78.485c3.595,0,6.51-2.904,6.51-6.5V279.53
			c0-3.591,2.923-6.505,6.51-6.505h115.318c3.601,0,6.511,2.914,6.511,6.505v89.169c0,3.595,2.914,6.505,6.51,6.505h80.536h1.864
			h80.907c0,0,12.156-9.15,0.168-24.15C472.676,349.24,473.25,347.204,473.25,345.025z M117.908,324.774
			c0,2.469-1.991,4.459-4.449,4.459H99.231c-2.456,0-4.446-1.99-4.446-4.459v-14.229c0-2.463,1.99-4.453,4.446-4.453h14.228
			c2.458,0,4.449,1.996,4.449,4.453V324.774z M117.908,294.794c0,2.458-1.991,4.443-4.449,4.443H99.231
			c-2.456,0-4.446-1.995-4.446-4.443v-14.229c0-2.447,1.99-4.448,4.446-4.448h14.228c2.458,0,4.449,2.001,4.449,4.448V294.794z
			 M121.335,232.551c0,2.466-1.99,4.446-4.453,4.446h-14.221c-2.466,0-4.456-1.98-4.456-4.446V218.33
			c0-2.463,1.99-4.453,4.456-4.453h14.221c2.463,0,4.453,1.998,4.453,4.453V232.551z M121.335,202.571
			c0,2.465-1.99,4.448-4.453,4.448h-14.221c-2.466,0-4.456-1.991-4.456-4.448v-14.229c0-2.448,1.99-4.438,4.456-4.438h14.221
			c2.463,0,4.453,1.998,4.453,4.438V202.571z M147.888,324.774c0,2.469-1.982,4.459-4.448,4.459h-14.226
			c-2.45,0-4.448-1.99-4.448-4.459v-14.229c0-2.463,1.998-4.453,4.448-4.453h14.226c2.466,0,4.448,1.996,4.448,4.453V324.774z
			 M147.888,294.794c0,2.458-1.982,4.443-4.448,4.443h-14.226c-2.45,0-4.448-1.995-4.448-4.443v-14.229
			c0-2.447,1.998-4.448,4.448-4.448h14.226c2.466,0,4.448,2.001,4.448,4.448V294.794z M151.316,232.551
			c0,2.466-1.998,4.446-4.453,4.446h-14.221c-2.466,0-4.456-1.98-4.456-4.446V218.33c0-2.463,1.99-4.453,4.456-4.453h14.221
			c2.455,0,4.453,1.998,4.453,4.453V232.551z M151.316,202.571c0,2.465-1.998,4.448-4.453,4.448h-14.221
			c-2.466,0-4.456-1.991-4.456-4.448v-14.229c0-2.448,1.99-4.438,4.456-4.438h14.221c2.455,0,4.453,1.998,4.453,4.438V202.571z
			 M196.568,232.551c0,2.466-1.991,4.446-4.456,4.446h-14.221c-2.463,0-4.454-1.98-4.454-4.446V218.33
			c0-2.463,1.991-4.453,4.454-4.453h14.221c2.465,0,4.456,1.998,4.456,4.453V232.551z M196.568,202.571
			c0,2.465-1.991,4.448-4.456,4.448h-14.221c-2.463,0-4.454-1.991-4.454-4.448v-14.229c0-2.448,1.991-4.438,4.454-4.438h14.221
			c2.465,0,4.456,1.998,4.456,4.438V202.571z M226.549,232.551c0,2.466-1.998,4.446-4.456,4.446h-14.229
			c-2.455,0-4.446-1.98-4.446-4.446V218.33c0-2.463,1.991-4.453,4.446-4.453h14.229c2.45,0,4.456,1.998,4.456,4.453V232.551z
			 M226.549,202.571c0,2.465-1.998,4.448-4.456,4.448h-14.229c-2.455,0-4.446-1.991-4.446-4.448v-14.229
			c0-2.448,1.991-4.438,4.446-4.438h14.229c2.45,0,4.456,1.998,4.456,4.438V202.571z M271.792,232.551
			c0,2.466-1.991,4.446-4.449,4.446H253.12c-2.458,0-4.448-1.98-4.448-4.446V218.33c0-2.463,1.99-4.453,4.448-4.453h14.223
			c2.458,0,4.449,1.998,4.449,4.453V232.551z M271.792,202.571c0,2.465-1.991,4.448-4.449,4.448H253.12
			c-2.458,0-4.448-1.991-4.448-4.448v-14.229c0-2.448,1.99-4.438,4.448-4.438h14.223c2.458,0,4.449,1.998,4.449,4.438V202.571z
			 M301.772,232.551c0,2.466-1.98,4.446-4.449,4.446h-14.229c-2.447,0-4.443-1.98-4.443-4.446V218.33
			c0-2.463,1.996-4.453,4.443-4.453h14.229c2.469,0,4.449,1.998,4.449,4.453V232.551z M301.772,202.571
			c0,2.465-1.98,4.448-4.449,4.448h-14.229c-2.447,0-4.443-1.991-4.443-4.448v-14.229c0-2.448,1.996-4.438,4.443-4.438h14.229
			c2.469,0,4.449,1.998,4.449,4.438V202.571z M343.593,321.688c0,2.458-1.99,4.448-4.453,4.448h-14.218
			c-2.469,0-4.464-1.99-4.464-4.448v-14.229c0-2.463,1.99-4.459,4.464-4.459h14.218c2.463,0,4.453,1.996,4.453,4.459V321.688z
			 M343.593,291.696c0,2.458-1.99,4.449-4.453,4.449h-14.218c-2.469,0-4.464-1.991-4.464-4.449v-14.223
			c0-2.453,1.99-4.448,4.464-4.448h14.218c2.463,0,4.453,1.995,4.453,4.448V291.696z M347.016,232.551
			c0,2.466-1.99,4.446-4.448,4.446h-14.229c-2.458,0-4.448-1.98-4.448-4.446V218.33c0-2.463,1.99-4.453,4.448-4.453h14.229
			c2.458,0,4.448,1.998,4.448,4.453V232.551z M347.016,202.571c0,2.465-1.99,4.448-4.448,4.448h-14.229
			c-2.458,0-4.448-1.991-4.448-4.448v-14.229c0-2.448,1.99-4.438,4.448-4.438h14.229c2.458,0,4.448,1.998,4.448,4.438V202.571z
			 M373.574,321.688c0,2.458-1.99,4.448-4.443,4.448h-14.228c-2.458,0-4.449-1.99-4.449-4.448v-14.229
			c0-2.463,1.991-4.459,4.449-4.459h14.228c2.453,0,4.443,1.996,4.443,4.459V321.688z M373.574,291.696
			c0,2.458-1.99,4.449-4.443,4.449h-14.228c-2.458,0-4.449-1.991-4.449-4.449v-14.223c0-2.453,1.991-4.448,4.449-4.448h14.228
			c2.453,0,4.443,1.995,4.443,4.448V291.696z M377.006,232.551c0,2.466-1.99,4.446-4.458,4.446H358.33
			c-2.468,0-4.458-1.98-4.458-4.446V218.33c0-2.463,1.99-4.453,4.458-4.453h14.219c2.468,0,4.458,1.998,4.458,4.453V232.551z
			 M377.006,202.571c0,2.465-1.99,4.448-4.458,4.448H358.33c-2.468,0-4.458-1.991-4.458-4.448v-14.229
			c0-2.448,1.99-4.438,4.458-4.438h14.219c2.468,0,4.458,1.998,4.458,4.438V202.571z M67.956,157.161l16.503-42.32h311.173
			l15.65,42.32H67.956z"/>
	</g>
</g>
<g>
</g>
<g>
</g>
<g>
</g>
<g>
</g>
<g>
</g>
<g>
</g>
<g>
</g>
<g>
</g>
<g>
</g>
<g>
</g>
<g>
</g>
<g>
</g>
<g>
</g>
<g>
</g>
<g>
</g>
</svg>
